<svg width="74" height="90" viewBox="0 0 74 90" fill="none" xmlns="http://www.w3.org/2000/svg">
    <path
        d="M25.0461 27.4933C40.9047 23.9312 43.0791 21.0469 45.7658 0C48.4524 21.0416 50.6268 23.9312 66.4854 27.4933C50.6268 31.0555 48.4524 33.9398 45.7658 54.9867C43.0791 33.9451 40.9047 31.0555 25.0461 27.4933Z"
        fill="white" />
    <path
        d="M0.343018 72.493C13.7269 70.2256 15.5621 68.3831 17.8265 54.9863C20.0908 68.388 21.9309 70.2256 35.3099 72.493C21.926 74.7603 20.0908 76.6029 17.8265 89.9996C15.5621 76.5979 13.722 74.7603 0.343018 72.493Z"
        fill="white" />
    <path
        d="M0.343018 13.125C0.343018 11.1598 1.93414 9.5625 3.90083 9.5625C5.86348 9.5625 7.45863 11.1598 7.45863 13.125C7.45863 15.0903 5.86348 16.6876 3.90083 16.6876C1.93818 16.6876 0.343018 15.0903 0.343018 13.125Z"
        fill="white" />
    <path
        d="M66.4875 63.3311C66.4875 61.3658 68.0787 59.7686 70.0454 59.7686C72.008 59.7686 73.6032 61.3658 73.6032 63.3311C73.6032 65.2963 72.008 66.8936 70.0454 66.8936C68.0827 66.8936 66.4875 65.2963 66.4875 63.3311Z"
        fill="white" />
</svg>